{
	"asset":{
		"generator":"Khronos glTF Blender I/O v4.5.49",
		"version":"2.0"
	},
	"scene":0,
	"scenes":[
		{
			"name":"Scene",
			"nodes":[
				0
			]
		}
	],
	"nodes":[
		{
			"mesh":0,
			"name":"Cube"
		}
	],
	"materials":[
		{
			"doubleSided":true,
			"name":"Material",
			"pbrMetallicRoughness":{
				"baseColorFactor":[
					0.8000074625015259,
					0.016822459176182747,
					0.02179568260908127,
					1
				],
				"metallicFactor":0,
				"roughnessFactor":0.5
			}
		},
		{
			"doubleSided":true,
			"name":"branco",
			"pbrMetallicRoughness":{
				"metallicFactor":0,
				"roughnessFactor":0.5
			}
		}
	],
	"meshes":[
		{
			"name":"Cube",
			"primitives":[
				{
					"attributes":{
						"POSITION":0,
						"NORMAL":1,
						"TEXCOORD_0":2
					},
					"indices":3,
					"material":0
				},
				{
					"attributes":{
						"POSITION":4,
						"NORMAL":5,
						"TEXCOORD_0":6
					},
					"indices":7,
					"material":1
				}
			]
		}
	],
	"accessors":[
		{
			"bufferView":0,
			"componentType":5126,
			"count":3056,
			"max":[
				2.511882781982422,
				7.83707857131958,
				2.267637014389038
			],
			"min":[
				-2.243805408477783,
				-2.0134143829345703,
				-2.320061206817627
			],
			"type":"VEC3"
		},
		{
			"bufferView":1,
			"componentType":5126,
			"count":3056,
			"type":"VEC3"
		},
		{
			"bufferView":2,
			"componentType":5126,
			"count":3056,
			"type":"VEC2"
		},
		{
			"bufferView":3,
			"componentType":5123,
			"count":6060,
			"type":"SCALAR"
		},
		{
			"bufferView":4,
			"componentType":5126,
			"count":128,
			"max":[
				1,
				6.393108367919922,
				1
			],
			"min":[
				-1.000000238418579,
				1,
				-1
			],
			"type":"VEC3"
		},
		{
			"bufferView":5,
			"componentType":5126,
			"count":128,
			"type":"VEC3"
		},
		{
			"bufferView":6,
			"componentType":5126,
			"count":128,
			"type":"VEC2"
		},
		{
			"bufferView":7,
			"componentType":5123,
			"count":192,
			"type":"SCALAR"
		}
	],
	"bufferViews":[
		{
			"buffer":0,
			"byteLength":36672,
			"byteOffset":0,
			"target":34962
		},
		{
			"buffer":0,
			"byteLength":36672,
			"byteOffset":36672,
			"target":34962
		},
		{
			"buffer":0,
			"byteLength":24448,
			"byteOffset":73344,
			"target":34962
		},
		{
			"buffer":0,
			"byteLength":12120,
			"byteOffset":97792,
			"target":34963
		},
		{
			"buffer":0,
			"byteLength":1536,
			"byteOffset":109912,
			"target":34962
		},
		{
			"buffer":0,
			"byteLength":1536,
			"byteOffset":111448,
			"target":34962
		},
		{
			"buffer":0,
			"byteLength":1024,
			"byteOffset":112984,
			"target":34962
		},
		{
			"buffer":0,
			"byteLength":384,
			"byteOffset":114008,
			"target":34963
		}
	],
	"buffers":[
		{
			"byteLength":114392,
			"uri":"foguete.bin"
		}
	]
}
